{
	"asset":{
		"generator":"Khronos glTF Blender I/O v4.0.44",
		"version":"2.0"
	},
	"extensionsUsed":[
		"KHR_materials_clearcoat",
		"KHR_materials_sheen",
		"KHR_materials_specular",
		"KHR_materials_ior"
	],
	"scene":0,
	"scenes":[
		{
			"name":"Scene",
			"nodes":[
				0,
				1,
				2
			]
		}
	],
	"nodes":[
		{
			"mesh":0,
			"name":"donut",
			"rotation":[
				0,
				-0.9534012675285339,
				0,
				0.30170518159866333
			],
			"scale":[
				0.04494365677237511,
				0.0455046109855175,
				0.04494365677237511
			],
			"translation":[
				-0.5850352644920349,
				0.17548339068889618,
				-0.30604633688926697
			]
		},
		{
			"mesh":1,
			"name":"icing",
			"rotation":[
				0,
				-0.9534012675285339,
				0,
				0.30170518159866333
			],
			"scale":[
				0.04494365677237511,
				0.0455046109855175,
				0.04494365677237511
			],
			"translation":[
				-0.5850352644920349,
				0.17548339068889618,
				-0.30604633688926697
			]
		},
		{
			"mesh":2,
			"name":"Cube",
			"translation":[
				-0.4327898621559143,
				-0.8562527894973755,
				-0.28975480794906616
			]
		}
	],
	"materials":[
		{
			"doubleSided":true,
			"extensions":{
				"KHR_materials_clearcoat":{
					"clearcoatFactor":0.01834862306714058,
					"clearcoatRoughnessFactor":0.011651376262307167
				},
				"KHR_materials_sheen":{
					"sheenColorFactor":[
						1.0,
						0.8980512619018555,
						0.3411750793457031
					],
					"sheenRoughnessFactor":0.536697268486023
				}
			},
			"name":"Material.002",
			"pbrMetallicRoughness":{
				"baseColorFactor":[
					0.3648153245449066,
					0.15901578962802887,
					0.11002500355243683,
					1
				],
				"metallicFactor":0.10091742873191833,
				"roughnessFactor":0.3623853325843811
			}
		},
		{
			"doubleSided":true,
			"extensions":{
				"KHR_materials_specular":{
					"specularColorFactor":[
						0.5286157131195068,
						0.03997686505317688,
						1.0
					]
				},
				"KHR_materials_sheen":{
					"sheenColorFactor":[
						1.0,
						0.7053224444389343,
						0.379641592502594
					],
					"sheenRoughnessFactor":0.5
				},
				"KHR_materials_ior":{
					"ior":1.4500000476837158
				}
			},
			"name":"Material.001",
			"pbrMetallicRoughness":{
				"baseColorFactor":[
					0.8007664680480957,
					0.09835982322692871,
					0.2826840281486511,
					1
				],
				"metallicFactor":0,
				"roughnessFactor":0.23394495248794556
			}
		},
		{
			"doubleSided":true,
			"name":"Material.003",
			"pbrMetallicRoughness":{
				"baseColorFactor":[
					0.8005601167678833,
					0.31026580929756165,
					0.6235802173614502,
					1
				],
				"metallicFactor":0,
				"roughnessFactor":0.5
			}
		}
	],
	"meshes":[
		{
			"name":"Torus.001",
			"primitives":[
				{
					"attributes":{
						"POSITION":0,
						"NORMAL":1,
						"TEXCOORD_0":2
					},
					"indices":3,
					"material":0
				}
			]
		},
		{
			"name":"Torus.003",
			"primitives":[
				{
					"attributes":{
						"POSITION":4,
						"NORMAL":5,
						"TEXCOORD_0":6
					},
					"indices":7,
					"material":1
				}
			]
		},
		{
			"name":"Cube.001",
			"primitives":[
				{
					"attributes":{
						"POSITION":8,
						"NORMAL":9,
						"TEXCOORD_0":10
					},
					"indices":11,
					"material":2
				}
			]
		}
	],
	"accessors":[
		{
			"bufferView":0,
			"componentType":5126,
			"count":5427,
			"max":[
				2.379446506500244,
				0.995343029499054,
				2.3786754608154297
			],
			"min":[
				-2.3708841800689697,
				-0.9380188584327698,
				-2.3797011375427246
			],
			"type":"VEC3"
		},
		{
			"bufferView":1,
			"componentType":5126,
			"count":5427,
			"type":"VEC3"
		},
		{
			"bufferView":2,
			"componentType":5126,
			"count":5427,
			"type":"VEC2"
		},
		{
			"bufferView":3,
			"componentType":5123,
			"count":30720,
			"type":"SCALAR"
		},
		{
			"bufferView":4,
			"componentType":5126,
			"count":8290,
			"max":[
				2.4691848754882812,
				1.0686088800430298,
				2.4246811866760254
			],
			"min":[
				-2.4052886962890625,
				-0.30330324172973633,
				-2.4567158222198486
			],
			"type":"VEC3"
		},
		{
			"bufferView":5,
			"componentType":5126,
			"count":8290,
			"type":"VEC3"
		},
		{
			"bufferView":6,
			"componentType":5126,
			"count":8290,
			"type":"VEC2"
		},
		{
			"bufferView":7,
			"componentType":5123,
			"count":49128,
			"type":"SCALAR"
		},
		{
			"bufferView":8,
			"componentType":5126,
			"count":24,
			"max":[
				1,
				1,
				1
			],
			"min":[
				-1,
				-1,
				-1
			],
			"type":"VEC3"
		},
		{
			"bufferView":9,
			"componentType":5126,
			"count":24,
			"type":"VEC3"
		},
		{
			"bufferView":10,
			"componentType":5126,
			"count":24,
			"type":"VEC2"
		},
		{
			"bufferView":11,
			"componentType":5123,
			"count":36,
			"type":"SCALAR"
		}
	],
	"bufferViews":[
		{
			"buffer":0,
			"byteLength":65124,
			"byteOffset":0,
			"target":34962
		},
		{
			"buffer":0,
			"byteLength":65124,
			"byteOffset":65124,
			"target":34962
		},
		{
			"buffer":0,
			"byteLength":43416,
			"byteOffset":130248,
			"target":34962
		},
		{
			"buffer":0,
			"byteLength":61440,
			"byteOffset":173664,
			"target":34963
		},
		{
			"buffer":0,
			"byteLength":99480,
			"byteOffset":235104,
			"target":34962
		},
		{
			"buffer":0,
			"byteLength":99480,
			"byteOffset":334584,
			"target":34962
		},
		{
			"buffer":0,
			"byteLength":66320,
			"byteOffset":434064,
			"target":34962
		},
		{
			"buffer":0,
			"byteLength":98256,
			"byteOffset":500384,
			"target":34963
		},
		{
			"buffer":0,
			"byteLength":288,
			"byteOffset":598640,
			"target":34962
		},
		{
			"buffer":0,
			"byteLength":288,
			"byteOffset":598928,
			"target":34962
		},
		{
			"buffer":0,
			"byteLength":192,
			"byteOffset":599216,
			"target":34962
		},
		{
			"buffer":0,
			"byteLength":72,
			"byteOffset":599408,
			"target":34963
		}
	],
	"buffers":[
		{
			"byteLength":599480,
			"uri":"donut.bin"
		}
	]
}
